<?xml version="1.0" standalone="no"?>
<!DOCTYPE svg PUBLIC "-//W3C//DTD SVG 1.1//EN" 
  "http://www.w3.org/Graphics/SVG/1.1/DTD/svg11.dtd">
<svg width="483.000mm" height="88.100mm" version="1.1"
     viewBox="0 0 483.000 88.100"
     xmlns="http://www.w3.org/2000/svg"  xmlns:xlink="http://www.w3.org/1999/xlink" 
     xmlns:fpd="http://www.schaeffer-ag.de">
  <desc>Created with the Front Panel Designer by the export of the file 'multi-TICC-rack-front.fpd'.</desc>
  <defs>
    <pattern id="revside-fill" x="1" y="1" width="4.830" height="4.830" patternUnits="userSpaceOnUse">
      <line x1="0" y1="0" x2="4.830" y2="4.830" style="stroke-width:0.483; stroke:black; stroke-dasharray:none;" />
      <line x1="0" y1="4.830" x2="4.830" y2="0" style="stroke-width:0.483; stroke:black; stroke-dasharray:none;" />
    </pattern>
    <pattern id="revside-fill-silver" x="1" y="1" width="4.830" height="4.830" patternUnits="userSpaceOnUse">
      <line x1="0" y1="0" x2="4.830" y2="4.830" style="stroke-width:0.483; stroke:#e0e0e0; stroke-dasharray:none;" />
      <line x1="0" y1="4.830" x2="4.830" y2="0" style="stroke-width:0.483; stroke:#e0e0e0; stroke-dasharray:none;" />
    </pattern>
  </defs>
<g transform="scale(1,-1) translate( -0.000, -88.100)" 
   fill-rule="evenodd"
   style="stroke-linecap:round; stroke-linejoin:round; stroke-opacity:1.0; stroke-opacity:1.0;">
<path d="
M482.000 88.100
A1.000,1.000 0 0,0 483.000,87.100
L483.000 1.000
A1.000,1.000 0 0,0 482.000,0.000
L1.000 0.000
A1.000,1.000 0 0,0 0.000,1.000
L0.000 87.100
A1.000,1.000 0 0,0 1.000,88.100
L482.000 88.100
" 
fill="#000000" vector-effect="non-scaling-stroke" stroke="#000000" stroke-width="0.100mm" fpd:visible="front back" />
<path d="
M50.870 85.646
L57.140 85.646
L57.140 84.436
L54.775 84.436
L54.775 80.146
L53.235 80.146
L53.235 84.436
L50.870 84.436
L50.870 85.646
" 
fill="none" vector-effect="non-scaling-stroke" stroke="#ffffff" stroke-width="0.200mm" fpd:visible="front" fpd:print_element="0" fpd:engraving_ral_9010="1" />
<path d="
M62.805 84.436
L61.650 82.126
L64.180 82.126
L63.025 84.436
L62.805 84.436
" 
fill="none" vector-effect="non-scaling-stroke" stroke="#ffffff" stroke-width="0.200mm" fpd:visible="front" fpd:print_element="0" fpd:engraving_ral_9010="1" />
<path d="
M61.705 85.646
L64.125 85.646
L67.040 80.146
L65.170 80.146
L64.785 80.916
L61.045 80.916
L60.660 80.146
L58.790 80.146
L61.705 85.646
" 
fill="none" vector-effect="non-scaling-stroke" stroke="#ffffff" stroke-width="0.200mm" fpd:visible="front" fpd:print_element="0" fpd:engraving_ral_9010="1" />
<path d="
M70.230 84.436
L70.230 82.731
L73.090 82.731
A0.657,0.657 0 0,1 73.750,83.391
L73.750 83.776
A0.657,0.657 0 0,1 73.090,84.436
L70.230 84.436
" 
fill="none" vector-effect="non-scaling-stroke" stroke="#ffffff" stroke-width="0.200mm" fpd:visible="front" fpd:print_element="0" fpd:engraving_ral_9010="1" />
<path d="
M68.690 85.646
L68.690 80.146
L70.230 80.146
L70.230 81.521
L74.080 81.521
A1.204,1.204 0 0,1 75.290,82.731
L75.290 84.436
A1.204,1.204 0 0,1 74.080,85.646
L68.690 85.646
" 
fill="none" vector-effect="non-scaling-stroke" stroke="#ffffff" stroke-width="0.200mm" fpd:visible="front" fpd:print_element="0" fpd:engraving_ral_9010="1" />
<path d="
M78.480 84.436
L78.480 82.731
L81.340 82.731
A0.657,0.657 0 0,1 82.000,83.391
L82.000 83.776
A0.657,0.657 0 0,1 81.340,84.436
L78.480 84.436
" 
fill="none" vector-effect="non-scaling-stroke" stroke="#ffffff" stroke-width="0.200mm" fpd:visible="front" fpd:print_element="0" fpd:engraving_ral_9010="1" />
<path d="
M76.940 85.646
L76.940 80.146
L78.480 80.146
L78.480 81.521
L81.340 81.521
A0.657,0.657 0 0,0 82.000,80.861
L82.000 80.146
L83.540 80.146
L83.540 81.026
A1.208,1.208 0 0,1 82.935,82.071
A1.208,1.208 0 0,1 83.540,83.116
L83.540 84.436
A1.204,1.204 0 0,1 82.330,85.646
L76.940 85.646
" 
fill="none" vector-effect="non-scaling-stroke" stroke="#ffffff" stroke-width="0.200mm" fpd:visible="front" fpd:print_element="0" fpd:engraving_ral_9010="1" />
<path d="
M90.140 83.996
L91.570 83.996
L91.570 83.226
A1.020,1.020 0 0,0 92.450,83.996
A6.506,6.506 0 0,0 93.880,83.996
A1.254,1.254 0 0,0 94.870,83.281
A1.206,1.206 0 0,0 95.915,83.996
A16.307,16.307 0 0,0 97.455,83.996
A1.097,1.097 0 0,0 98.500,82.896
L98.500 80.146
L97.070 80.146
L97.070 82.456
A0.442,0.442 0 0,1 96.685,82.896
A5.040,5.040 0 0,1 95.420,82.896
A0.442,0.442 0 0,1 95.035,82.456
L95.035 80.146
L93.605 80.146
L93.605 82.456
A0.442,0.442 0 0,1 93.220,82.896
A5.040,5.040 0 0,1 91.955,82.896
A0.442,0.442 0 0,1 91.570,82.456
L91.570 80.146
L90.140 80.146
L90.140 83.996
" 
fill="none" vector-effect="non-scaling-stroke" stroke="#ffffff" stroke-width="0.200mm" fpd:visible="front" fpd:print_element="0" fpd:engraving_ral_9010="1" />
<path d="
M100.150 83.996
L100.150 81.246
A1.097,1.097 0 0,1 101.195,80.146
A18.637,18.637 0 0,1 102.955,80.146
A1.065,1.065 0 0,1 103.890,80.806
L103.890 80.146
L105.320 80.146
L105.320 83.996
L103.890 83.996
L103.890 81.686
A0.501,0.501 0 0,0 103.450,81.191
A6.506,6.506 0 0,0 102.020,81.191
A0.501,0.501 0 0,0 101.580,81.686
L101.580 83.996
L100.150 83.996
" 
fill="none" vector-effect="non-scaling-stroke" stroke="#ffffff" stroke-width="0.200mm" fpd:visible="front" fpd:print_element="0" fpd:engraving_ral_9010="1" />
<path d="
M106.970 85.646
L108.400 85.646
L108.400 80.146
L106.970 80.146
L106.970 85.646
" 
fill="none" vector-effect="non-scaling-stroke" stroke="#ffffff" stroke-width="0.200mm" fpd:visible="front" fpd:print_element="0" fpd:engraving_ral_9010="1" />
<path d="
M110.710 84.876
L112.140 84.876
L112.140 83.996
L114.450 83.996
L114.450 83.006
L112.140 83.006
L112.140 81.686
A0.442,0.442 0 0,1 112.525,81.246
A1.315,1.315 0 0,1 112.855,81.246
A0.442,0.442 0 0,1 113.240,81.686
L113.240 81.906
L114.670 81.906
L114.670 81.246
A1.097,1.097 0 0,0 113.625,80.146
A19.802,19.802 0 0,0 111.755,80.146
A1.097,1.097 0 0,0 110.710,81.246
L110.710 83.006
L110.050 83.006
L110.050 83.996
L110.710 83.996
L110.710 84.876
" 
fill="none" vector-effect="non-scaling-stroke" stroke="#ffffff" stroke-width="0.200mm" fpd:visible="front" fpd:print_element="0" fpd:engraving_ral_9010="1" />
<path d="
M116.320 84.546
L117.750 84.546
L117.750 85.646
L116.320 85.646
L116.320 84.546
" 
fill="none" vector-effect="non-scaling-stroke" stroke="#ffffff" stroke-width="0.200mm" fpd:visible="front" fpd:print_element="0" fpd:engraving_ral_9010="1" />
<path d="
M116.320 83.996
L117.750 83.996
L117.750 80.146
L116.320 80.146
L116.320 83.996
" 
fill="none" vector-effect="non-scaling-stroke" stroke="#ffffff" stroke-width="0.200mm" fpd:visible="front" fpd:print_element="0" fpd:engraving_ral_9010="1" />
<path d="
M119.400 82.346
L124.020 82.346
L124.020 81.521
L119.400 81.521
L119.400 82.346
" 
fill="none" vector-effect="non-scaling-stroke" stroke="#ffffff" stroke-width="0.200mm" fpd:visible="front" fpd:print_element="0" fpd:engraving_ral_9010="1" />
<path d="
M125.670 85.646
L131.940 85.646
L131.940 84.436
L129.575 84.436
L129.575 80.146
L128.035 80.146
L128.035 84.436
L125.670 84.436
L125.670 85.646
" 
fill="none" vector-effect="non-scaling-stroke" stroke="#ffffff" stroke-width="0.200mm" fpd:visible="front" fpd:print_element="0" fpd:engraving_ral_9010="1" />
<path d="
M133.590 85.646
L133.590 80.146
L135.130 80.146
L135.130 85.646
L133.590 85.646
" 
fill="none" vector-effect="non-scaling-stroke" stroke="#ffffff" stroke-width="0.200mm" fpd:visible="front" fpd:print_element="0" fpd:engraving_ral_9010="1" />
<path d="
M142.390 83.721
L143.930 83.721
L143.930 84.381
A1.217,1.217 0 0,1 142.830,85.591
A26.252,26.252 0 0,1 137.880,85.591
A1.217,1.217 0 0,1 136.780,84.381
L136.780 81.356
A1.187,1.187 0 0,1 137.880,80.201
A26.252,26.252 0 0,1 142.830,80.201
A1.187,1.187 0 0,1 143.930,81.356
L143.930 82.346
L142.390 82.346
L142.390 82.071
A0.667,0.667 0 0,0 141.785,81.411
A15.168,15.168 0 0,0 138.925,81.411
A0.667,0.667 0 0,0 138.320,82.071
L138.320 83.721
A0.667,0.667 0 0,0 138.925,84.381
A15.168,15.168 0 0,0 141.785,84.381
A0.667,0.667 0 0,0 142.390,83.721
" 
fill="none" vector-effect="non-scaling-stroke" stroke="#ffffff" stroke-width="0.200mm" fpd:visible="front" fpd:print_element="0" fpd:engraving_ral_9010="1" />
<path d="
M151.190 83.721
L152.730 83.721
L152.730 84.381
A1.217,1.217 0 0,1 151.630,85.591
A26.252,26.252 0 0,1 146.680,85.591
A1.217,1.217 0 0,1 145.580,84.381
L145.580 81.356
A1.187,1.187 0 0,1 146.680,80.201
A26.252,26.252 0 0,1 151.630,80.201
A1.187,1.187 0 0,1 152.730,81.356
L152.730 82.346
L151.190 82.346
L151.190 82.071
A0.667,0.667 0 0,0 150.585,81.411
A15.168,15.168 0 0,0 147.725,81.411
A0.667,0.667 0 0,0 147.120,82.071
L147.120 83.721
A0.667,0.667 0 0,0 147.725,84.381
A15.168,15.168 0 0,0 150.585,84.381
A0.667,0.667 0 0,0 151.190,83.721
" 
fill="none" vector-effect="non-scaling-stroke" stroke="#ffffff" stroke-width="0.200mm" fpd:visible="front" fpd:print_element="0" fpd:engraving_ral_9010="1" />
<path d="
M51.871 29.026
L52.711 29.866
L52.711 26.085
" 
fill="none" vector-effect="non-scaling-stroke" stroke="#ffffff" stroke-width="0.200mm" fpd:visible="front" fpd:print_element="0" fpd:engraving_ral_9010="1" />
<path d="
M53.720 28.858
L53.720 27.093
A1.092,1.092 0 0,1 55.905,27.093
L55.905 28.858
A1.092,1.092 0 0,1 53.720,28.858
" 
fill="none" vector-effect="non-scaling-stroke" stroke="#ffffff" stroke-width="0.200mm" fpd:visible="front" fpd:print_element="0" fpd:engraving_ral_9010="1" />
<path d="
M59.602 26.085
L59.602 29.866
L61.073 27.135
L62.543 29.866
L62.543 26.085
" 
fill="none" vector-effect="non-scaling-stroke" stroke="#ffffff" stroke-width="0.200mm" fpd:visible="front" fpd:print_element="0" fpd:engraving_ral_9010="1" />
<path d="
M63.551 29.866
L63.551 26.085
L63.551 27.976
L66.072 27.976
L66.072 26.085
L66.072 29.866
" 
fill="none" vector-effect="non-scaling-stroke" stroke="#ffffff" stroke-width="0.200mm" fpd:visible="front" fpd:print_element="0" fpd:engraving_ral_9010="1" />
<path d="
M67.079 28.606
L69.180 28.606
L67.079 26.085
L69.180 26.085
" 
fill="none" vector-effect="non-scaling-stroke" stroke="#ffffff" stroke-width="0.200mm" fpd:visible="front" fpd:print_element="0" fpd:engraving_ral_9010="1" />
<path d="
M45.443 20.398
L45.443 24.179
L46.829 24.179
A0.945,0.945 0 0,0 46.829,22.289
L45.443 22.289
L46.914 22.289
L47.754 20.398
" 
fill="none" vector-effect="non-scaling-stroke" stroke="#ffffff" stroke-width="0.200mm" fpd:visible="front" fpd:print_element="0" fpd:engraving_ral_9010="1" />
<path d="
M48.720 22.289
L50.821 22.289
" 
fill="none" vector-effect="non-scaling-stroke" stroke="#ffffff" stroke-width="0.200mm" fpd:visible="front" fpd:print_element="0" fpd:engraving_ral_9010="1" />
<path d="
M51.241 24.179
L48.720 24.179
L48.720 20.398
L51.241 20.398
" 
fill="none" vector-effect="non-scaling-stroke" stroke="#ffffff" stroke-width="0.200mm" fpd:visible="front" fpd:print_element="0" fpd:engraving_ral_9010="1" />
<path d="
M52.249 22.289
L54.350 22.289
" 
fill="none" vector-effect="non-scaling-stroke" stroke="#ffffff" stroke-width="0.200mm" fpd:visible="front" fpd:print_element="0" fpd:engraving_ral_9010="1" />
<path d="
M54.770 24.179
L52.249 24.179
L52.249 20.398
" 
fill="none" vector-effect="non-scaling-stroke" stroke="#ffffff" stroke-width="0.200mm" fpd:visible="front" fpd:print_element="0" fpd:engraving_ral_9010="1" />
<path d="
M55.778 22.289
L57.879 22.289
" 
fill="none" vector-effect="non-scaling-stroke" stroke="#ffffff" stroke-width="0.200mm" fpd:visible="front" fpd:print_element="0" fpd:engraving_ral_9010="1" />
<path d="
M58.299 24.179
L55.778 24.179
L55.778 20.398
L58.299 20.398
" 
fill="none" vector-effect="non-scaling-stroke" stroke="#ffffff" stroke-width="0.200mm" fpd:visible="front" fpd:print_element="0" fpd:engraving_ral_9010="1" />
<path d="
M59.307 20.398
L59.307 24.179
L60.694 24.179
A0.945,0.945 0 0,0 60.694,22.289
L59.307 22.289
L60.778 22.289
L61.618 20.398
" 
fill="none" vector-effect="non-scaling-stroke" stroke="#ffffff" stroke-width="0.200mm" fpd:visible="front" fpd:print_element="0" fpd:engraving_ral_9010="1" />
<path d="
M62.583 22.289
L64.684 22.289
" 
fill="none" vector-effect="non-scaling-stroke" stroke="#ffffff" stroke-width="0.200mm" fpd:visible="front" fpd:print_element="0" fpd:engraving_ral_9010="1" />
<path d="
M65.104 24.179
L62.583 24.179
L62.583 20.398
L65.104 20.398
" 
fill="none" vector-effect="non-scaling-stroke" stroke="#ffffff" stroke-width="0.200mm" fpd:visible="front" fpd:print_element="0" fpd:engraving_ral_9010="1" />
<path d="
M66.111 20.398
L66.111 24.179
L68.632 20.398
L68.632 24.179
" 
fill="none" vector-effect="non-scaling-stroke" stroke="#ffffff" stroke-width="0.200mm" fpd:visible="front" fpd:print_element="0" fpd:engraving_ral_9010="1" />
<path d="
M71.950 23.633
A1.232,1.232 0 0,1 69.639,23.003
L69.639 21.574
A1.263,1.263 0 0,1 72.076,21.112
" 
fill="none" vector-effect="non-scaling-stroke" stroke="#ffffff" stroke-width="0.200mm" fpd:visible="front" fpd:print_element="0" fpd:engraving_ral_9010="1" />
<path d="
M73.083 22.289
L75.184 22.289
" 
fill="none" vector-effect="non-scaling-stroke" stroke="#ffffff" stroke-width="0.200mm" fpd:visible="front" fpd:print_element="0" fpd:engraving_ral_9010="1" />
<path d="
M75.604 24.179
L73.083 24.179
L73.083 20.398
L75.604 20.398
" 
fill="none" vector-effect="non-scaling-stroke" stroke="#ffffff" stroke-width="0.200mm" fpd:visible="front" fpd:print_element="0" fpd:engraving_ral_9010="1" />
<path d="
M254.911 15.352
L254.911 10.119
" 
fill="none" vector-effect="non-scaling-stroke" stroke="#ffffff" stroke-width="0.200mm" fpd:visible="front" fpd:print_element="0" fpd:engraving_ral_9010="1" />
<path d="
M256.307 10.119
L256.307 15.352
L259.795 10.119
L259.795 15.352
" 
fill="none" vector-effect="non-scaling-stroke" stroke="#ffffff" stroke-width="0.200mm" fpd:visible="front" fpd:print_element="0" fpd:engraving_ral_9010="1" />
<path d="
M261.192 10.119
L261.192 15.352
L263.111 15.352
A1.308,1.308 0 0,0 263.111,12.736
L261.192 12.736
" 
fill="none" vector-effect="non-scaling-stroke" stroke="#ffffff" stroke-width="0.200mm" fpd:visible="front" fpd:print_element="0" fpd:engraving_ral_9010="1" />
<path d="
M265.728 15.352
L265.728 11.747
A1.744,1.744 0 0,1 269.216,11.747
L269.216 15.352
" 
fill="none" vector-effect="non-scaling-stroke" stroke="#ffffff" stroke-width="0.200mm" fpd:visible="front" fpd:print_element="0" fpd:engraving_ral_9010="1" />
<path d="
M270.612 15.352
L274.100 15.352
L272.356 15.352
L272.356 10.119
" 
fill="none" vector-effect="non-scaling-stroke" stroke="#ffffff" stroke-width="0.200mm" fpd:visible="front" fpd:print_element="0" fpd:engraving_ral_9010="1" />
<path d="
M278.868 14.829
A1.380,1.380 0 0,1 278.054,15.352
A3.284,3.284 0 0,1 276.426,15.294
A1.554,1.554 0 0,1 275.612,14.712
A1.064,1.064 0 0,1 276.135,13.084
L278.170 12.387
A1.064,1.064 0 0,0 278.694,10.759
A1.554,1.554 0 0,0 277.880,10.177
A3.284,3.284 0 0,0 276.252,10.119
A1.380,1.380 0 0,0 275.438,10.642
" 
fill="none" vector-effect="non-scaling-stroke" stroke="#ffffff" stroke-width="0.200mm" fpd:visible="front" fpd:print_element="0" fpd:engraving_ral_9010="1" />
<path d="
M107.713 26.780
A1.232,1.232 0 0,1 105.402,26.150
L105.402 24.721
A1.263,1.263 0 0,1 107.839,24.259
" 
fill="none" vector-effect="non-scaling-stroke" stroke="#ffffff" stroke-width="0.200mm" fpd:visible="front" fpd:print_element="0" fpd:engraving_ral_9010="1" />
<path d="
M108.847 27.327
L108.847 23.546
L108.847 25.436
L111.368 25.436
L111.368 23.546
L111.368 27.327
" 
fill="none" vector-effect="non-scaling-stroke" stroke="#ffffff" stroke-width="0.200mm" fpd:visible="front" fpd:print_element="0" fpd:engraving_ral_9010="1" />
<path d="
M115.063 26.319
L115.063 24.554
A1.092,1.092 0 0,1 117.248,24.554
L117.248 26.319
A1.092,1.092 0 0,1 115.063,26.319
" 
fill="none" vector-effect="non-scaling-stroke" stroke="#ffffff" stroke-width="0.200mm" fpd:visible="front" fpd:print_element="0" fpd:engraving_ral_9010="1" />
<path d="
M152.836 26.780
A1.232,1.232 0 0,1 150.525,26.150
L150.525 24.721
A1.263,1.263 0 0,1 152.962,24.259
" 
fill="none" vector-effect="non-scaling-stroke" stroke="#ffffff" stroke-width="0.200mm" fpd:visible="front" fpd:print_element="0" fpd:engraving_ral_9010="1" />
<path d="
M153.970 27.327
L153.970 23.546
L153.970 25.436
L156.491 25.436
L156.491 23.546
L156.491 27.327
" 
fill="none" vector-effect="non-scaling-stroke" stroke="#ffffff" stroke-width="0.200mm" fpd:visible="front" fpd:print_element="0" fpd:engraving_ral_9010="1" />
<path d="
M160.186 26.487
L161.026 27.327
L161.026 23.546
" 
fill="none" vector-effect="non-scaling-stroke" stroke="#ffffff" stroke-width="0.200mm" fpd:visible="front" fpd:print_element="0" fpd:engraving_ral_9010="1" />
<path d="
M196.656 26.780
A1.232,1.232 0 0,1 194.345,26.150
L194.345 24.721
A1.263,1.263 0 0,1 196.782,24.259
" 
fill="none" vector-effect="non-scaling-stroke" stroke="#ffffff" stroke-width="0.200mm" fpd:visible="front" fpd:print_element="0" fpd:engraving_ral_9010="1" />
<path d="
M197.790 27.327
L197.790 23.546
L197.790 25.436
L200.311 25.436
L200.311 23.546
L200.311 27.327
" 
fill="none" vector-effect="non-scaling-stroke" stroke="#ffffff" stroke-width="0.200mm" fpd:visible="front" fpd:print_element="0" fpd:engraving_ral_9010="1" />
<path d="
M204.048 26.949
L204.300 27.159
A1.043,1.043 0 0,0 205.771,25.689
L204.006 23.546
L206.107 23.546
" 
fill="none" vector-effect="non-scaling-stroke" stroke="#ffffff" stroke-width="0.200mm" fpd:visible="front" fpd:print_element="0" fpd:engraving_ral_9010="1" />
<path d="
M241.158 26.780
A1.232,1.232 0 0,1 238.847,26.150
L238.847 24.721
A1.263,1.263 0 0,1 241.284,24.259
" 
fill="none" vector-effect="non-scaling-stroke" stroke="#ffffff" stroke-width="0.200mm" fpd:visible="front" fpd:print_element="0" fpd:engraving_ral_9010="1" />
<path d="
M242.292 27.327
L242.292 23.546
L242.292 25.436
L244.813 25.436
L244.813 23.546
L244.813 27.327
" 
fill="none" vector-effect="non-scaling-stroke" stroke="#ffffff" stroke-width="0.200mm" fpd:visible="front" fpd:print_element="0" fpd:engraving_ral_9010="1" />
<path d="
M248.508 26.739
A1.103,1.103 0 0,0 249.516,27.411
A0.987,0.987 0 0,0 249.516,25.436
A0.987,0.987 0 0,0 249.516,23.462
A1.168,1.168 0 0,0 248.508,24.050
" 
fill="none" vector-effect="non-scaling-stroke" stroke="#ffffff" stroke-width="0.200mm" fpd:visible="front" fpd:print_element="0" fpd:engraving_ral_9010="1" />
<path d="
M285.556 26.780
A1.232,1.232 0 0,1 283.245,26.150
L283.245 24.721
A1.263,1.263 0 0,1 285.682,24.259
" 
fill="none" vector-effect="non-scaling-stroke" stroke="#ffffff" stroke-width="0.200mm" fpd:visible="front" fpd:print_element="0" fpd:engraving_ral_9010="1" />
<path d="
M286.690 27.327
L286.690 23.546
L286.690 25.436
L289.211 25.436
L289.211 23.546
L289.211 27.327
" 
fill="none" vector-effect="non-scaling-stroke" stroke="#ffffff" stroke-width="0.200mm" fpd:visible="front" fpd:print_element="0" fpd:engraving_ral_9010="1" />
<path d="
M294.166 27.327
L292.906 24.176
L295.007 24.176
L294.587 24.176
L294.587 24.806
L294.587 23.546
" 
fill="none" vector-effect="non-scaling-stroke" stroke="#ffffff" stroke-width="0.200mm" fpd:visible="front" fpd:print_element="0" fpd:engraving_ral_9010="1" />
<path d="
M329.981 26.780
A1.232,1.232 0 0,1 327.670,26.150
L327.670 24.721
A1.263,1.263 0 0,1 330.107,24.259
" 
fill="none" vector-effect="non-scaling-stroke" stroke="#ffffff" stroke-width="0.200mm" fpd:visible="front" fpd:print_element="0" fpd:engraving_ral_9010="1" />
<path d="
M331.115 27.327
L331.115 23.546
L331.115 25.436
L333.636 25.436
L333.636 23.546
L333.636 27.327
" 
fill="none" vector-effect="non-scaling-stroke" stroke="#ffffff" stroke-width="0.200mm" fpd:visible="front" fpd:print_element="0" fpd:engraving_ral_9010="1" />
<path d="
M339.264 27.327
L337.373 27.327
L337.373 25.563
A1.439,1.439 0 0,0 338.381,25.857
A1.216,1.216 0 0,0 339.138,23.798
A1.135,1.135 0 0,0 337.331,24.050
" 
fill="none" vector-effect="non-scaling-stroke" stroke="#ffffff" stroke-width="0.200mm" fpd:visible="front" fpd:print_element="0" fpd:engraving_ral_9010="1" />
<path d="
M374.413 26.780
A1.232,1.232 0 0,1 372.102,26.150
L372.102 24.721
A1.263,1.263 0 0,1 374.539,24.259
" 
fill="none" vector-effect="non-scaling-stroke" stroke="#ffffff" stroke-width="0.200mm" fpd:visible="front" fpd:print_element="0" fpd:engraving_ral_9010="1" />
<path d="
M375.547 27.327
L375.547 23.546
L375.547 25.436
L378.068 25.436
L378.068 23.546
L378.068 27.327
" 
fill="none" vector-effect="non-scaling-stroke" stroke="#ffffff" stroke-width="0.200mm" fpd:visible="front" fpd:print_element="0" fpd:engraving_ral_9010="1" />
<path d="
M381.763 24.764
A1.092,1.092 0 0,0 383.948,24.764
L383.948 24.554
A1.092,1.092 0 0,0 381.763,24.554
L381.763 26.193
A1.165,1.165 0 0,0 383.738,27.075
" 
fill="none" vector-effect="non-scaling-stroke" stroke="#ffffff" stroke-width="0.200mm" fpd:visible="front" fpd:print_element="0" fpd:engraving_ral_9010="1" />
<path d="
M418.906 26.780
A1.232,1.232 0 0,1 416.595,26.150
L416.595 24.721
A1.263,1.263 0 0,1 419.032,24.259
" 
fill="none" vector-effect="non-scaling-stroke" stroke="#ffffff" stroke-width="0.200mm" fpd:visible="front" fpd:print_element="0" fpd:engraving_ral_9010="1" />
<path d="
M420.040 27.327
L420.040 23.546
L420.040 25.436
L422.561 25.436
L422.561 23.546
L422.561 27.327
" 
fill="none" vector-effect="non-scaling-stroke" stroke="#ffffff" stroke-width="0.200mm" fpd:visible="front" fpd:print_element="0" fpd:engraving_ral_9010="1" />
<path d="
M426.256 26.697
L426.256 27.327
L428.357 27.327
L426.676 23.546
" 
fill="none" vector-effect="non-scaling-stroke" stroke="#ffffff" stroke-width="0.200mm" fpd:visible="front" fpd:print_element="0" fpd:engraving_ral_9010="1" />
<path d="
M4.975 9.320
A5.250,5.250 0 0,1 4.975,2.580
A1.200,1.200 0 0,1 5.895,2.150
L12.105 2.150
A1.200,1.200 0 0,1 13.025,2.580
A5.250,5.250 0 0,1 13.025,9.320
A1.200,1.200 0 0,1 12.105,9.750
L5.895 9.750
A1.200,1.200 0 0,1 4.975,9.320
" 
fill="#ffffff" vector-effect="non-scaling-stroke" stroke="#000000" stroke-width="0.100mm" fpd:visible="front back" fpd:print_element="0" />
<path d="
M4.975 85.520
A5.250,5.250 0 0,1 4.975,78.780
A1.200,1.200 0 0,1 5.895,78.350
L12.105 78.350
A1.200,1.200 0 0,1 13.025,78.780
A5.250,5.250 0 0,1 13.025,85.520
A1.200,1.200 0 0,1 12.105,85.950
L5.895 85.950
A1.200,1.200 0 0,1 4.975,85.520
" 
fill="#ffffff" vector-effect="non-scaling-stroke" stroke="#000000" stroke-width="0.100mm" fpd:visible="front back" fpd:print_element="0" />
<path d="
M469.975 9.320
A5.250,5.250 0 0,1 469.975,2.580
A1.200,1.200 0 0,1 470.895,2.150
L477.105 2.150
A1.200,1.200 0 0,1 478.025,2.580
A5.250,5.250 0 0,1 478.025,9.320
A1.200,1.200 0 0,1 477.105,9.750
L470.895 9.750
A1.200,1.200 0 0,1 469.975,9.320
" 
fill="#ffffff" vector-effect="non-scaling-stroke" stroke="#000000" stroke-width="0.100mm" fpd:visible="front back" fpd:print_element="0" />
<path d="
M469.975 85.520
A5.250,5.250 0 0,1 469.975,78.780
A1.200,1.200 0 0,1 470.895,78.350
L477.105 78.350
A1.200,1.200 0 0,1 478.025,78.780
A5.250,5.250 0 0,1 478.025,85.520
A1.200,1.200 0 0,1 477.105,85.950
L470.895 85.950
A1.200,1.200 0 0,1 469.975,85.520
" 
fill="#ffffff" vector-effect="non-scaling-stroke" stroke="#000000" stroke-width="0.100mm" fpd:visible="front back" fpd:print_element="0" />
<path d="
M30.795 77.902
L31.023 77.907
L31.091 77.909
L31.159 77.914
L31.218 77.919
L31.445 77.943
L31.513 77.951
L31.581 77.961
L31.653 77.974
L31.876 78.018
L31.943 78.033
L32.010 78.049
L32.068 78.065
L32.288 78.128
L32.354 78.148
L32.419 78.169
L32.480 78.192
L32.692 78.273
L32.755 78.298
L32.818 78.325
L32.879 78.354
L33.085 78.454
L33.146 78.485
L33.207 78.517
L33.268 78.553
L33.463 78.670
L33.521 78.706
L33.579 78.744
L33.626 78.777
L33.811 78.910
L33.866 78.951
L33.920 78.993
L33.973 79.037
L34.146 79.186
L34.197 79.232
L34.247 79.279
L34.289 79.321
L34.449 79.484
L34.496 79.533
L34.542 79.584
L34.586 79.636
L34.731 79.812
L34.774 79.865
L34.815 79.920
L34.855 79.976
L34.984 80.164
L35.022 80.221
L35.058 80.280
L35.087 80.329
L35.200 80.527
L35.233 80.587
L35.264 80.648
L35.295 80.712
L35.390 80.919
L35.417 80.982
L35.443 81.045
L35.466 81.107
L35.543 81.322
L35.566 81.387
L35.586 81.452
L35.603 81.515
L35.661 81.735
L35.678 81.801
L35.692 81.868
L35.704 81.933
L35.743 82.158
L35.754 82.225
L35.763 82.293
L35.769 82.353
L35.789 82.580
L35.794 82.648
L35.797 82.717
L35.798 82.786
L35.798 83.014
L35.797 83.083
L35.794 83.151
L35.789 83.220
L35.769 83.447
L35.762 83.515
L35.753 83.583
L35.743 83.642
L35.704 83.867
L35.692 83.935
L35.677 84.002
L35.661 84.065
L35.603 84.285
L35.585 84.351
L35.565 84.417
L35.543 84.478
L35.466 84.693
L35.442 84.758
L35.416 84.821
L35.390 84.881
L35.295 85.088
L35.265 85.150
L35.234 85.211
L35.200 85.273
L35.087 85.471
L35.052 85.530
L35.016 85.588
L34.984 85.636
L34.855 85.824
L34.815 85.880
L34.774 85.934
L34.731 85.988
L34.586 86.164
L34.541 86.217
L34.496 86.267
L34.449 86.316
L34.289 86.479
L34.240 86.527
L34.190 86.574
L34.146 86.614
L33.973 86.763
L33.920 86.807
L33.866 86.849
L33.811 86.890
L33.626 87.023
L33.570 87.062
L33.512 87.100
L33.463 87.130
L33.268 87.247
L33.209 87.282
L33.148 87.314
L33.085 87.346
L32.879 87.446
L32.817 87.475
L32.754 87.502
L32.692 87.527
L32.480 87.608
L32.415 87.632
L32.350 87.653
L32.288 87.672
L32.068 87.735
L32.002 87.753
L31.935 87.769
L31.876 87.782
L31.653 87.826
L31.585 87.838
L31.518 87.848
L31.445 87.857
L31.218 87.881
L31.150 87.887
L31.081 87.891
L31.023 87.893
L30.795 87.898
L30.726 87.899
L30.657 87.897
L30.599 87.895
L30.371 87.881
L30.303 87.875
L30.234 87.868
L30.154 87.857
L29.929 87.822
L29.861 87.811
L29.794 87.797
L29.744 87.786
L29.522 87.733
L29.456 87.716
L29.390 87.697
L29.325 87.676
L29.109 87.604
L29.044 87.582
L28.980 87.557
L28.914 87.530
L28.705 87.439
L28.642 87.410
L28.581 87.380
L28.531 87.354
L28.330 87.246
L28.270 87.213
L28.211 87.178
L28.150 87.139
L27.960 87.014
L27.904 86.976
L27.848 86.936
L27.803 86.901
L27.623 86.760
L27.569 86.717
L27.517 86.672
L27.463 86.622
L27.297 86.466
L27.247 86.419
L27.200 86.370
L27.154 86.320
L27.002 86.150
L26.957 86.099
L26.914 86.046
L26.876 85.997
L26.739 85.815
L26.699 85.760
L26.660 85.703
L26.626 85.650
L26.505 85.457
L26.469 85.399
L26.436 85.339
L26.405 85.281
L26.301 85.078
L26.270 85.016
L26.242 84.954
L26.214 84.889
L26.128 84.677
L26.104 84.613
L26.081 84.549
L26.064 84.497
L25.996 84.280
L25.976 84.214
L25.958 84.148
L25.943 84.081
L25.894 83.858
L25.880 83.791
L25.868 83.724
L25.858 83.653
L25.829 83.427
L25.821 83.359
L25.816 83.291
L25.812 83.231
L25.802 83.003
L25.800 82.934
L25.800 82.866
L25.802 82.797
L25.812 82.569
L25.816 82.501
L25.822 82.432
L25.829 82.373
L25.858 82.147
L25.868 82.079
L25.880 82.011
L25.894 81.942
L25.943 81.719
L25.958 81.652
L25.976 81.586
L25.996 81.520
L26.064 81.303
L26.085 81.238
L26.108 81.174
L26.128 81.123
L26.214 80.911
L26.241 80.847
L26.270 80.785
L26.301 80.722
L26.405 80.519
L26.437 80.459
L26.471 80.399
L26.505 80.343
L26.626 80.150
L26.663 80.092
L26.702 80.036
L26.739 79.985
L26.876 79.803
L26.919 79.749
L26.962 79.696
L27.002 79.650
L27.154 79.480
L27.201 79.429
L27.248 79.380
L27.297 79.334
L27.463 79.178
L27.513 79.131
L27.565 79.087
L27.623 79.040
L27.803 78.899
L27.857 78.858
L27.913 78.818
L27.960 78.786
L28.150 78.661
L28.208 78.624
L28.267 78.589
L28.330 78.554
L28.531 78.446
L28.592 78.414
L28.653 78.385
L28.705 78.361
L28.914 78.270
L28.977 78.244
L29.041 78.219
L29.109 78.196
L29.325 78.124
L29.390 78.103
L29.456 78.084
L29.522 78.067
L29.744 78.014
L29.811 77.999
L29.879 77.986
L29.929 77.978
L30.154 77.943
L30.222 77.933
L30.290 77.926
L30.371 77.919
L30.599 77.905
L30.667 77.902
L30.736 77.901
L30.795 77.902
M28.150 82.900
A2.650,2.650 0 1,0 33.450,82.900
A2.650,2.650 0 1,0 28.150,82.900
" 
fill="#e0e0e0" vector-effect="non-scaling-stroke" stroke="#000000" stroke-width="0.100mm" fpd:visible="front" />
<path d="
M30.795 77.902
L31.023 77.907
L31.091 77.909
L31.159 77.914
L31.218 77.919
L31.445 77.943
L31.513 77.951
L31.581 77.961
L31.653 77.974
L31.876 78.018
L31.943 78.033
L32.010 78.049
L32.068 78.065
L32.288 78.128
L32.354 78.148
L32.419 78.169
L32.480 78.192
L32.692 78.273
L32.755 78.298
L32.818 78.325
L32.879 78.354
L33.085 78.454
L33.146 78.485
L33.207 78.517
L33.268 78.553
L33.463 78.670
L33.521 78.706
L33.579 78.744
L33.626 78.777
L33.811 78.910
L33.866 78.951
L33.920 78.993
L33.973 79.037
L34.146 79.186
L34.197 79.232
L34.247 79.279
L34.289 79.321
L34.449 79.484
L34.496 79.533
L34.542 79.584
L34.586 79.636
L34.731 79.812
L34.774 79.865
L34.815 79.920
L34.855 79.976
L34.984 80.164
L35.022 80.221
L35.058 80.280
L35.087 80.329
L35.200 80.527
L35.233 80.587
L35.264 80.648
L35.295 80.712
L35.390 80.919
L35.417 80.982
L35.443 81.045
L35.466 81.107
L35.543 81.322
L35.566 81.387
L35.586 81.452
L35.603 81.515
L35.661 81.735
L35.678 81.801
L35.692 81.868
L35.704 81.933
L35.743 82.158
L35.754 82.225
L35.763 82.293
L35.769 82.353
L35.789 82.580
L35.794 82.648
L35.797 82.717
L35.798 82.786
L35.798 83.014
L35.797 83.083
L35.794 83.151
L35.789 83.220
L35.769 83.447
L35.762 83.515
L35.753 83.583
L35.743 83.642
L35.704 83.867
L35.692 83.935
L35.677 84.002
L35.661 84.065
L35.603 84.285
L35.585 84.351
L35.565 84.417
L35.543 84.478
L35.466 84.693
L35.442 84.758
L35.416 84.821
L35.390 84.881
L35.295 85.088
L35.265 85.150
L35.234 85.211
L35.200 85.273
L35.087 85.471
L35.052 85.530
L35.016 85.588
L34.984 85.636
L34.855 85.824
L34.815 85.880
L34.774 85.934
L34.731 85.988
L34.586 86.164
L34.541 86.217
L34.496 86.267
L34.449 86.316
L34.289 86.479
L34.240 86.527
L34.190 86.574
L34.146 86.614
L33.973 86.763
L33.920 86.807
L33.866 86.849
L33.811 86.890
L33.626 87.023
L33.570 87.062
L33.512 87.100
L33.463 87.130
L33.268 87.247
L33.209 87.282
L33.148 87.314
L33.085 87.346
L32.879 87.446
L32.817 87.475
L32.754 87.502
L32.692 87.527
L32.480 87.608
L32.415 87.632
L32.350 87.653
L32.288 87.672
L32.068 87.735
L32.002 87.753
L31.935 87.769
L31.876 87.782
L31.653 87.826
L31.585 87.838
L31.518 87.848
L31.445 87.857
L31.218 87.881
L31.150 87.887
L31.081 87.891
L31.023 87.893
L30.795 87.898
L30.726 87.899
L30.657 87.897
L30.599 87.895
L30.371 87.881
L30.303 87.875
L30.234 87.868
L30.154 87.857
L29.929 87.822
L29.861 87.811
L29.794 87.797
L29.744 87.786
L29.522 87.733
L29.456 87.716
L29.390 87.697
L29.325 87.676
L29.109 87.604
L29.044 87.582
L28.980 87.557
L28.914 87.530
L28.705 87.439
L28.642 87.410
L28.581 87.380
L28.531 87.354
L28.330 87.246
L28.270 87.213
L28.211 87.178
L28.150 87.139
L27.960 87.014
L27.904 86.976
L27.848 86.936
L27.803 86.901
L27.623 86.760
L27.569 86.717
L27.517 86.672
L27.463 86.622
L27.297 86.466
L27.247 86.419
L27.200 86.370
L27.154 86.320
L27.002 86.150
L26.957 86.099
L26.914 86.046
L26.876 85.997
L26.739 85.815
L26.699 85.760
L26.660 85.703
L26.626 85.650
L26.505 85.457
L26.469 85.399
L26.436 85.339
L26.405 85.281
L26.301 85.078
L26.270 85.016
L26.242 84.954
L26.214 84.889
L26.128 84.677
L26.104 84.613
L26.081 84.549
L26.064 84.497
L25.996 84.280
L25.976 84.214
L25.958 84.148
L25.943 84.081
L25.894 83.858
L25.880 83.791
L25.868 83.724
L25.858 83.653
L25.829 83.427
L25.821 83.359
L25.816 83.291
L25.812 83.231
L25.802 83.003
L25.800 82.934
L25.800 82.866
L25.802 82.797
L25.812 82.569
L25.816 82.501
L25.822 82.432
L25.829 82.373
L25.858 82.147
L25.868 82.079
L25.880 82.011
L25.894 81.942
L25.943 81.719
L25.958 81.652
L25.976 81.586
L25.996 81.520
L26.064 81.303
L26.085 81.238
L26.108 81.174
L26.128 81.123
L26.214 80.911
L26.241 80.847
L26.270 80.785
L26.301 80.722
L26.405 80.519
L26.437 80.459
L26.471 80.399
L26.505 80.343
L26.626 80.150
L26.663 80.092
L26.702 80.036
L26.739 79.985
L26.876 79.803
L26.919 79.749
L26.962 79.696
L27.002 79.650
L27.154 79.480
L27.201 79.429
L27.248 79.380
L27.297 79.334
L27.463 79.178
L27.513 79.131
L27.565 79.087
L27.623 79.040
L27.803 78.899
L27.857 78.858
L27.913 78.818
L27.960 78.786
L28.150 78.661
L28.208 78.624
L28.267 78.589
L28.330 78.554
L28.531 78.446
L28.592 78.414
L28.653 78.385
L28.705 78.361
L28.914 78.270
L28.977 78.244
L29.041 78.219
L29.109 78.196
L29.325 78.124
L29.390 78.103
L29.456 78.084
L29.522 78.067
L29.744 78.014
L29.811 77.999
L29.879 77.986
L29.929 77.978
L30.154 77.943
L30.222 77.933
L30.290 77.926
L30.371 77.919
L30.599 77.905
L30.667 77.902
L30.736 77.901
L30.795 77.902
" 
fill="none" vector-effect="non-scaling-stroke" stroke="#000000" stroke-width="0.100mm" fpd:visible="front" />
<path d="
M28.150 82.900
A2.650,2.650 0 1,0 33.450,82.900
A2.650,2.650 0 1,0 28.150,82.900
" 
fill="#ffffff" vector-effect="non-scaling-stroke" stroke="#000000" stroke-width="0.100mm" fpd:visible="front back" fpd:print_element="0" />
<path d="
M452.195 77.902
L452.423 77.907
L452.491 77.909
L452.559 77.914
L452.618 77.919
L452.845 77.943
L452.913 77.951
L452.981 77.961
L453.053 77.974
L453.276 78.018
L453.343 78.033
L453.410 78.049
L453.468 78.065
L453.688 78.128
L453.754 78.148
L453.819 78.169
L453.880 78.192
L454.092 78.273
L454.155 78.298
L454.218 78.325
L454.279 78.354
L454.485 78.454
L454.546 78.485
L454.607 78.517
L454.668 78.553
L454.863 78.670
L454.921 78.706
L454.979 78.744
L455.026 78.777
L455.211 78.910
L455.266 78.951
L455.320 78.993
L455.373 79.037
L455.546 79.186
L455.597 79.232
L455.647 79.279
L455.689 79.321
L455.849 79.484
L455.896 79.533
L455.942 79.584
L455.986 79.636
L456.131 79.812
L456.174 79.865
L456.215 79.920
L456.255 79.976
L456.384 80.164
L456.422 80.221
L456.458 80.280
L456.487 80.329
L456.600 80.527
L456.633 80.587
L456.664 80.648
L456.695 80.712
L456.790 80.919
L456.817 80.982
L456.843 81.045
L456.866 81.107
L456.943 81.322
L456.966 81.387
L456.986 81.452
L457.003 81.515
L457.061 81.735
L457.078 81.801
L457.092 81.868
L457.104 81.933
L457.143 82.158
L457.154 82.225
L457.163 82.293
L457.169 82.353
L457.189 82.580
L457.194 82.648
L457.197 82.717
L457.198 82.786
L457.198 83.014
L457.197 83.083
L457.194 83.151
L457.189 83.220
L457.169 83.447
L457.162 83.515
L457.153 83.583
L457.143 83.642
L457.104 83.867
L457.092 83.935
L457.077 84.002
L457.061 84.065
L457.003 84.285
L456.985 84.351
L456.965 84.417
L456.943 84.478
L456.866 84.693
L456.842 84.758
L456.816 84.821
L456.790 84.881
L456.695 85.088
L456.665 85.150
L456.634 85.211
L456.600 85.273
L456.487 85.471
L456.452 85.530
L456.416 85.588
L456.384 85.636
L456.255 85.824
L456.215 85.880
L456.174 85.934
L456.131 85.988
L455.986 86.164
L455.941 86.217
L455.896 86.267
L455.849 86.316
L455.689 86.479
L455.640 86.527
L455.590 86.574
L455.546 86.614
L455.373 86.763
L455.320 86.807
L455.266 86.849
L455.211 86.890
L455.026 87.023
L454.970 87.062
L454.912 87.100
L454.863 87.130
L454.668 87.247
L454.609 87.282
L454.548 87.314
L454.485 87.346
L454.279 87.446
L454.217 87.475
L454.154 87.502
L454.092 87.527
L453.880 87.608
L453.815 87.632
L453.750 87.653
L453.688 87.672
L453.468 87.735
L453.402 87.753
L453.335 87.769
L453.276 87.782
L453.053 87.826
L452.985 87.838
L452.918 87.848
L452.845 87.857
L452.618 87.881
L452.550 87.887
L452.481 87.891
L452.423 87.893
L452.195 87.898
L452.126 87.899
L452.057 87.897
L451.999 87.895
L451.771 87.881
L451.703 87.875
L451.634 87.868
L451.554 87.857
L451.329 87.822
L451.261 87.811
L451.194 87.797
L451.144 87.786
L450.922 87.733
L450.856 87.716
L450.790 87.697
L450.725 87.676
L450.509 87.604
L450.444 87.582
L450.380 87.557
L450.314 87.530
L450.105 87.439
L450.042 87.410
L449.981 87.380
L449.931 87.354
L449.730 87.246
L449.670 87.213
L449.611 87.178
L449.550 87.139
L449.360 87.014
L449.304 86.976
L449.248 86.936
L449.203 86.901
L449.023 86.760
L448.969 86.717
L448.917 86.672
L448.863 86.622
L448.697 86.466
L448.647 86.419
L448.600 86.370
L448.554 86.320
L448.402 86.150
L448.357 86.099
L448.314 86.046
L448.276 85.997
L448.139 85.815
L448.099 85.760
L448.060 85.703
L448.026 85.650
L447.905 85.457
L447.869 85.399
L447.836 85.339
L447.805 85.281
L447.701 85.078
L447.670 85.016
L447.642 84.954
L447.614 84.889
L447.528 84.677
L447.504 84.613
L447.481 84.549
L447.464 84.497
L447.396 84.280
L447.376 84.214
L447.358 84.148
L447.343 84.081
L447.294 83.858
L447.280 83.791
L447.268 83.724
L447.258 83.653
L447.229 83.427
L447.221 83.359
L447.216 83.291
L447.212 83.231
L447.202 83.003
L447.200 82.934
L447.200 82.866
L447.202 82.797
L447.212 82.569
L447.216 82.501
L447.222 82.432
L447.229 82.373
L447.258 82.147
L447.268 82.079
L447.280 82.011
L447.294 81.942
L447.343 81.719
L447.358 81.652
L447.376 81.586
L447.396 81.520
L447.464 81.303
L447.485 81.238
L447.508 81.174
L447.528 81.123
L447.614 80.911
L447.641 80.847
L447.670 80.785
L447.701 80.722
L447.805 80.519
L447.837 80.459
L447.871 80.399
L447.905 80.343
L448.026 80.150
L448.063 80.092
L448.102 80.036
L448.139 79.985
L448.276 79.803
L448.319 79.749
L448.362 79.696
L448.402 79.650
L448.554 79.480
L448.601 79.429
L448.648 79.380
L448.697 79.334
L448.863 79.178
L448.913 79.131
L448.965 79.087
L449.023 79.040
L449.203 78.899
L449.257 78.858
L449.313 78.818
L449.360 78.786
L449.550 78.661
L449.608 78.624
L449.667 78.589
L449.730 78.554
L449.931 78.446
L449.992 78.414
L450.053 78.385
L450.105 78.361
L450.314 78.270
L450.377 78.244
L450.441 78.219
L450.509 78.196
L450.725 78.124
L450.790 78.103
L450.856 78.084
L450.922 78.067
L451.144 78.014
L451.211 77.999
L451.279 77.986
L451.329 77.978
L451.554 77.943
L451.622 77.933
L451.690 77.926
L451.771 77.919
L451.999 77.905
L452.067 77.902
L452.136 77.901
L452.195 77.902
M449.550 82.900
A2.650,2.650 0 1,0 454.850,82.900
A2.650,2.650 0 1,0 449.550,82.900
" 
fill="#e0e0e0" vector-effect="non-scaling-stroke" stroke="#000000" stroke-width="0.100mm" fpd:visible="front" />
<path d="
M452.195 77.902
L452.423 77.907
L452.491 77.909
L452.559 77.914
L452.618 77.919
L452.845 77.943
L452.913 77.951
L452.981 77.961
L453.053 77.974
L453.276 78.018
L453.343 78.033
L453.410 78.049
L453.468 78.065
L453.688 78.128
L453.754 78.148
L453.819 78.169
L453.880 78.192
L454.092 78.273
L454.155 78.298
L454.218 78.325
L454.279 78.354
L454.485 78.454
L454.546 78.485
L454.607 78.517
L454.668 78.553
L454.863 78.670
L454.921 78.706
L454.979 78.744
L455.026 78.777
L455.211 78.910
L455.266 78.951
L455.320 78.993
L455.373 79.037
L455.546 79.186
L455.597 79.232
L455.647 79.279
L455.689 79.321
L455.849 79.484
L455.896 79.533
L455.942 79.584
L455.986 79.636
L456.131 79.812
L456.174 79.865
L456.215 79.920
L456.255 79.976
L456.384 80.164
L456.422 80.221
L456.458 80.280
L456.487 80.329
L456.600 80.527
L456.633 80.587
L456.664 80.648
L456.695 80.712
L456.790 80.919
L456.817 80.982
L456.843 81.045
L456.866 81.107
L456.943 81.322
L456.966 81.387
L456.986 81.452
L457.003 81.515
L457.061 81.735
L457.078 81.801
L457.092 81.868
L457.104 81.933
L457.143 82.158
L457.154 82.225
L457.163 82.293
L457.169 82.353
L457.189 82.580
L457.194 82.648
L457.197 82.717
L457.198 82.786
L457.198 83.014
L457.197 83.083
L457.194 83.151
L457.189 83.220
L457.169 83.447
L457.162 83.515
L457.153 83.583
L457.143 83.642
L457.104 83.867
L457.092 83.935
L457.077 84.002
L457.061 84.065
L457.003 84.285
L456.985 84.351
L456.965 84.417
L456.943 84.478
L456.866 84.693
L456.842 84.758
L456.816 84.821
L456.790 84.881
L456.695 85.088
L456.665 85.150
L456.634 85.211
L456.600 85.273
L456.487 85.471
L456.452 85.530
L456.416 85.588
L456.384 85.636
L456.255 85.824
L456.215 85.880
L456.174 85.934
L456.131 85.988
L455.986 86.164
L455.941 86.217
L455.896 86.267
L455.849 86.316
L455.689 86.479
L455.640 86.527
L455.590 86.574
L455.546 86.614
L455.373 86.763
L455.320 86.807
L455.266 86.849
L455.211 86.890
L455.026 87.023
L454.970 87.062
L454.912 87.100
L454.863 87.130
L454.668 87.247
L454.609 87.282
L454.548 87.314
L454.485 87.346
L454.279 87.446
L454.217 87.475
L454.154 87.502
L454.092 87.527
L453.880 87.608
L453.815 87.632
L453.750 87.653
L453.688 87.672
L453.468 87.735
L453.402 87.753
L453.335 87.769
L453.276 87.782
L453.053 87.826
L452.985 87.838
L452.918 87.848
L452.845 87.857
L452.618 87.881
L452.550 87.887
L452.481 87.891
L452.423 87.893
L452.195 87.898
L452.126 87.899
L452.057 87.897
L451.999 87.895
L451.771 87.881
L451.703 87.875
L451.634 87.868
L451.554 87.857
L451.329 87.822
L451.261 87.811
L451.194 87.797
L451.144 87.786
L450.922 87.733
L450.856 87.716
L450.790 87.697
L450.725 87.676
L450.509 87.604
L450.444 87.582
L450.380 87.557
L450.314 87.530
L450.105 87.439
L450.042 87.410
L449.981 87.380
L449.931 87.354
L449.730 87.246
L449.670 87.213
L449.611 87.178
L449.550 87.139
L449.360 87.014
L449.304 86.976
L449.248 86.936
L449.203 86.901
L449.023 86.760
L448.969 86.717
L448.917 86.672
L448.863 86.622
L448.697 86.466
L448.647 86.419
L448.600 86.370
L448.554 86.320
L448.402 86.150
L448.357 86.099
L448.314 86.046
L448.276 85.997
L448.139 85.815
L448.099 85.760
L448.060 85.703
L448.026 85.650
L447.905 85.457
L447.869 85.399
L447.836 85.339
L447.805 85.281
L447.701 85.078
L447.670 85.016
L447.642 84.954
L447.614 84.889
L447.528 84.677
L447.504 84.613
L447.481 84.549
L447.464 84.497
L447.396 84.280
L447.376 84.214
L447.358 84.148
L447.343 84.081
L447.294 83.858
L447.280 83.791
L447.268 83.724
L447.258 83.653
L447.229 83.427
L447.221 83.359
L447.216 83.291
L447.212 83.231
L447.202 83.003
L447.200 82.934
L447.200 82.866
L447.202 82.797
L447.212 82.569
L447.216 82.501
L447.222 82.432
L447.229 82.373
L447.258 82.147
L447.268 82.079
L447.280 82.011
L447.294 81.942
L447.343 81.719
L447.358 81.652
L447.376 81.586
L447.396 81.520
L447.464 81.303
L447.485 81.238
L447.508 81.174
L447.528 81.123
L447.614 80.911
L447.641 80.847
L447.670 80.785
L447.701 80.722
L447.805 80.519
L447.837 80.459
L447.871 80.399
L447.905 80.343
L448.026 80.150
L448.063 80.092
L448.102 80.036
L448.139 79.985
L448.276 79.803
L448.319 79.749
L448.362 79.696
L448.402 79.650
L448.554 79.480
L448.601 79.429
L448.648 79.380
L448.697 79.334
L448.863 79.178
L448.913 79.131
L448.965 79.087
L449.023 79.040
L449.203 78.899
L449.257 78.858
L449.313 78.818
L449.360 78.786
L449.550 78.661
L449.608 78.624
L449.667 78.589
L449.730 78.554
L449.931 78.446
L449.992 78.414
L450.053 78.385
L450.105 78.361
L450.314 78.270
L450.377 78.244
L450.441 78.219
L450.509 78.196
L450.725 78.124
L450.790 78.103
L450.856 78.084
L450.922 78.067
L451.144 78.014
L451.211 77.999
L451.279 77.986
L451.329 77.978
L451.554 77.943
L451.622 77.933
L451.690 77.926
L451.771 77.919
L451.999 77.905
L452.067 77.902
L452.136 77.901
L452.195 77.902
" 
fill="none" vector-effect="non-scaling-stroke" stroke="#000000" stroke-width="0.100mm" fpd:visible="front" />
<path d="
M449.550 82.900
A2.650,2.650 0 1,0 454.850,82.900
A2.650,2.650 0 1,0 449.550,82.900
" 
fill="#ffffff" vector-effect="non-scaling-stroke" stroke="#000000" stroke-width="0.100mm" fpd:visible="front back" fpd:print_element="0" />
<path d="
M452.195 0.202
L452.423 0.207
L452.491 0.209
L452.559 0.214
L452.618 0.219
L452.845 0.243
L452.913 0.251
L452.981 0.261
L453.053 0.274
L453.276 0.318
L453.343 0.333
L453.410 0.349
L453.468 0.365
L453.688 0.428
L453.754 0.448
L453.819 0.469
L453.880 0.492
L454.092 0.573
L454.155 0.598
L454.218 0.625
L454.279 0.654
L454.485 0.754
L454.546 0.785
L454.607 0.817
L454.668 0.853
L454.863 0.970
L454.921 1.006
L454.979 1.044
L455.026 1.077
L455.211 1.210
L455.266 1.251
L455.320 1.293
L455.373 1.337
L455.546 1.486
L455.597 1.532
L455.647 1.579
L455.689 1.621
L455.849 1.784
L455.896 1.833
L455.942 1.884
L455.986 1.936
L456.131 2.112
L456.174 2.165
L456.215 2.220
L456.255 2.276
L456.384 2.464
L456.422 2.521
L456.458 2.580
L456.487 2.629
L456.600 2.827
L456.633 2.887
L456.664 2.948
L456.695 3.012
L456.790 3.219
L456.817 3.282
L456.843 3.345
L456.866 3.407
L456.943 3.622
L456.966 3.687
L456.986 3.752
L457.003 3.815
L457.061 4.035
L457.078 4.101
L457.092 4.168
L457.104 4.233
L457.143 4.458
L457.154 4.525
L457.163 4.593
L457.169 4.653
L457.189 4.880
L457.194 4.948
L457.197 5.017
L457.198 5.086
L457.198 5.314
L457.197 5.383
L457.194 5.451
L457.189 5.520
L457.169 5.747
L457.162 5.815
L457.153 5.883
L457.143 5.942
L457.104 6.167
L457.092 6.235
L457.077 6.302
L457.061 6.365
L457.003 6.585
L456.985 6.651
L456.965 6.717
L456.943 6.778
L456.866 6.993
L456.842 7.058
L456.816 7.121
L456.790 7.181
L456.695 7.388
L456.665 7.450
L456.634 7.511
L456.600 7.573
L456.487 7.771
L456.452 7.830
L456.416 7.888
L456.384 7.936
L456.255 8.124
L456.215 8.180
L456.174 8.234
L456.131 8.288
L455.986 8.464
L455.941 8.517
L455.896 8.567
L455.849 8.616
L455.689 8.779
L455.640 8.827
L455.590 8.874
L455.546 8.914
L455.373 9.063
L455.320 9.107
L455.266 9.149
L455.211 9.190
L455.026 9.323
L454.970 9.362
L454.912 9.400
L454.863 9.430
L454.668 9.547
L454.609 9.582
L454.548 9.614
L454.485 9.646
L454.279 9.746
L454.217 9.775
L454.154 9.802
L454.092 9.827
L453.880 9.908
L453.815 9.932
L453.750 9.953
L453.688 9.972
L453.468 10.035
L453.402 10.053
L453.335 10.069
L453.276 10.082
L453.053 10.126
L452.985 10.138
L452.918 10.148
L452.845 10.157
L452.618 10.181
L452.550 10.187
L452.481 10.191
L452.423 10.193
L452.195 10.198
L452.126 10.199
L452.057 10.197
L451.999 10.195
L451.771 10.181
L451.703 10.175
L451.634 10.168
L451.554 10.157
L451.329 10.122
L451.261 10.111
L451.194 10.097
L451.144 10.086
L450.922 10.033
L450.856 10.016
L450.790 9.997
L450.725 9.976
L450.509 9.904
L450.444 9.882
L450.380 9.857
L450.314 9.830
L450.105 9.739
L450.042 9.710
L449.981 9.680
L449.931 9.654
L449.730 9.546
L449.670 9.513
L449.611 9.478
L449.550 9.439
L449.360 9.314
L449.304 9.276
L449.248 9.236
L449.203 9.201
L449.023 9.060
L448.969 9.017
L448.917 8.972
L448.863 8.922
L448.697 8.766
L448.647 8.719
L448.600 8.670
L448.554 8.620
L448.402 8.450
L448.357 8.399
L448.314 8.346
L448.276 8.297
L448.139 8.115
L448.099 8.060
L448.060 8.003
L448.026 7.950
L447.905 7.757
L447.869 7.699
L447.836 7.639
L447.805 7.581
L447.701 7.378
L447.670 7.316
L447.642 7.254
L447.614 7.189
L447.528 6.977
L447.504 6.913
L447.481 6.849
L447.464 6.797
L447.396 6.580
L447.376 6.514
L447.358 6.448
L447.343 6.381
L447.294 6.158
L447.280 6.091
L447.268 6.024
L447.258 5.953
L447.229 5.727
L447.221 5.659
L447.216 5.591
L447.212 5.531
L447.202 5.303
L447.200 5.234
L447.200 5.166
L447.202 5.097
L447.212 4.869
L447.216 4.801
L447.222 4.732
L447.229 4.673
L447.258 4.447
L447.268 4.379
L447.280 4.311
L447.294 4.242
L447.343 4.019
L447.358 3.952
L447.376 3.886
L447.396 3.820
L447.464 3.603
L447.485 3.538
L447.508 3.474
L447.528 3.423
L447.614 3.211
L447.641 3.147
L447.670 3.085
L447.701 3.022
L447.805 2.819
L447.837 2.759
L447.871 2.699
L447.905 2.643
L448.026 2.450
L448.063 2.392
L448.102 2.336
L448.139 2.285
L448.276 2.103
L448.319 2.049
L448.362 1.996
L448.402 1.950
L448.554 1.780
L448.601 1.729
L448.648 1.680
L448.697 1.634
L448.863 1.478
L448.913 1.431
L448.965 1.387
L449.023 1.340
L449.203 1.199
L449.257 1.158
L449.313 1.118
L449.360 1.086
L449.550 0.961
L449.608 0.924
L449.667 0.889
L449.730 0.854
L449.931 0.746
L449.992 0.714
L450.053 0.685
L450.105 0.661
L450.314 0.570
L450.377 0.544
L450.441 0.519
L450.509 0.496
L450.725 0.424
L450.790 0.403
L450.856 0.384
L450.922 0.367
L451.144 0.314
L451.211 0.299
L451.279 0.286
L451.329 0.278
L451.554 0.243
L451.622 0.233
L451.690 0.226
L451.771 0.219
L451.999 0.205
L452.067 0.202
L452.136 0.201
L452.195 0.202
M449.550 5.200
A2.650,2.650 0 1,0 454.850,5.200
A2.650,2.650 0 1,0 449.550,5.200
" 
fill="#e0e0e0" vector-effect="non-scaling-stroke" stroke="#000000" stroke-width="0.100mm" fpd:visible="front" />
<path d="
M452.195 0.202
L452.423 0.207
L452.491 0.209
L452.559 0.214
L452.618 0.219
L452.845 0.243
L452.913 0.251
L452.981 0.261
L453.053 0.274
L453.276 0.318
L453.343 0.333
L453.410 0.349
L453.468 0.365
L453.688 0.428
L453.754 0.448
L453.819 0.469
L453.880 0.492
L454.092 0.573
L454.155 0.598
L454.218 0.625
L454.279 0.654
L454.485 0.754
L454.546 0.785
L454.607 0.817
L454.668 0.853
L454.863 0.970
L454.921 1.006
L454.979 1.044
L455.026 1.077
L455.211 1.210
L455.266 1.251
L455.320 1.293
L455.373 1.337
L455.546 1.486
L455.597 1.532
L455.647 1.579
L455.689 1.621
L455.849 1.784
L455.896 1.833
L455.942 1.884
L455.986 1.936
L456.131 2.112
L456.174 2.165
L456.215 2.220
L456.255 2.276
L456.384 2.464
L456.422 2.521
L456.458 2.580
L456.487 2.629
L456.600 2.827
L456.633 2.887
L456.664 2.948
L456.695 3.012
L456.790 3.219
L456.817 3.282
L456.843 3.345
L456.866 3.407
L456.943 3.622
L456.966 3.687
L456.986 3.752
L457.003 3.815
L457.061 4.035
L457.078 4.101
L457.092 4.168
L457.104 4.233
L457.143 4.458
L457.154 4.525
L457.163 4.593
L457.169 4.653
L457.189 4.880
L457.194 4.948
L457.197 5.017
L457.198 5.086
L457.198 5.314
L457.197 5.383
L457.194 5.451
L457.189 5.520
L457.169 5.747
L457.162 5.815
L457.153 5.883
L457.143 5.942
L457.104 6.167
L457.092 6.235
L457.077 6.302
L457.061 6.365
L457.003 6.585
L456.985 6.651
L456.965 6.717
L456.943 6.778
L456.866 6.993
L456.842 7.058
L456.816 7.121
L456.790 7.181
L456.695 7.388
L456.665 7.450
L456.634 7.511
L456.600 7.573
L456.487 7.771
L456.452 7.830
L456.416 7.888
L456.384 7.936
L456.255 8.124
L456.215 8.180
L456.174 8.234
L456.131 8.288
L455.986 8.464
L455.941 8.517
L455.896 8.567
L455.849 8.616
L455.689 8.779
L455.640 8.827
L455.590 8.874
L455.546 8.914
L455.373 9.063
L455.320 9.107
L455.266 9.149
L455.211 9.190
L455.026 9.323
L454.970 9.362
L454.912 9.400
L454.863 9.430
L454.668 9.547
L454.609 9.582
L454.548 9.614
L454.485 9.646
L454.279 9.746
L454.217 9.775
L454.154 9.802
L454.092 9.827
L453.880 9.908
L453.815 9.932
L453.750 9.953
L453.688 9.972
L453.468 10.035
L453.402 10.053
L453.335 10.069
L453.276 10.082
L453.053 10.126
L452.985 10.138
L452.918 10.148
L452.845 10.157
L452.618 10.181
L452.550 10.187
L452.481 10.191
L452.423 10.193
L452.195 10.198
L452.126 10.199
L452.057 10.197
L451.999 10.195
L451.771 10.181
L451.703 10.175
L451.634 10.168
L451.554 10.157
L451.329 10.122
L451.261 10.111
L451.194 10.097
L451.144 10.086
L450.922 10.033
L450.856 10.016
L450.790 9.997
L450.725 9.976
L450.509 9.904
L450.444 9.882
L450.380 9.857
L450.314 9.830
L450.105 9.739
L450.042 9.710
L449.981 9.680
L449.931 9.654
L449.730 9.546
L449.670 9.513
L449.611 9.478
L449.550 9.439
L449.360 9.314
L449.304 9.276
L449.248 9.236
L449.203 9.201
L449.023 9.060
L448.969 9.017
L448.917 8.972
L448.863 8.922
L448.697 8.766
L448.647 8.719
L448.600 8.670
L448.554 8.620
L448.402 8.450
L448.357 8.399
L448.314 8.346
L448.276 8.297
L448.139 8.115
L448.099 8.060
L448.060 8.003
L448.026 7.950
L447.905 7.757
L447.869 7.699
L447.836 7.639
L447.805 7.581
L447.701 7.378
L447.670 7.316
L447.642 7.254
L447.614 7.189
L447.528 6.977
L447.504 6.913
L447.481 6.849
L447.464 6.797
L447.396 6.580
L447.376 6.514
L447.358 6.448
L447.343 6.381
L447.294 6.158
L447.280 6.091
L447.268 6.024
L447.258 5.953
L447.229 5.727
L447.221 5.659
L447.216 5.591
L447.212 5.531
L447.202 5.303
L447.200 5.234
L447.200 5.166
L447.202 5.097
L447.212 4.869
L447.216 4.801
L447.222 4.732
L447.229 4.673
L447.258 4.447
L447.268 4.379
L447.280 4.311
L447.294 4.242
L447.343 4.019
L447.358 3.952
L447.376 3.886
L447.396 3.820
L447.464 3.603
L447.485 3.538
L447.508 3.474
L447.528 3.423
L447.614 3.211
L447.641 3.147
L447.670 3.085
L447.701 3.022
L447.805 2.819
L447.837 2.759
L447.871 2.699
L447.905 2.643
L448.026 2.450
L448.063 2.392
L448.102 2.336
L448.139 2.285
L448.276 2.103
L448.319 2.049
L448.362 1.996
L448.402 1.950
L448.554 1.780
L448.601 1.729
L448.648 1.680
L448.697 1.634
L448.863 1.478
L448.913 1.431
L448.965 1.387
L449.023 1.340
L449.203 1.199
L449.257 1.158
L449.313 1.118
L449.360 1.086
L449.550 0.961
L449.608 0.924
L449.667 0.889
L449.730 0.854
L449.931 0.746
L449.992 0.714
L450.053 0.685
L450.105 0.661
L450.314 0.570
L450.377 0.544
L450.441 0.519
L450.509 0.496
L450.725 0.424
L450.790 0.403
L450.856 0.384
L450.922 0.367
L451.144 0.314
L451.211 0.299
L451.279 0.286
L451.329 0.278
L451.554 0.243
L451.622 0.233
L451.690 0.226
L451.771 0.219
L451.999 0.205
L452.067 0.202
L452.136 0.201
L452.195 0.202
" 
fill="none" vector-effect="non-scaling-stroke" stroke="#000000" stroke-width="0.100mm" fpd:visible="front" />
<path d="
M449.550 5.200
A2.650,2.650 0 1,0 454.850,5.200
A2.650,2.650 0 1,0 449.550,5.200
" 
fill="#ffffff" vector-effect="non-scaling-stroke" stroke="#000000" stroke-width="0.100mm" fpd:visible="front back" fpd:print_element="0" />
<path d="
M30.795 0.202
L31.023 0.207
L31.091 0.209
L31.159 0.214
L31.218 0.219
L31.445 0.243
L31.513 0.251
L31.581 0.261
L31.653 0.274
L31.876 0.318
L31.943 0.333
L32.010 0.349
L32.068 0.365
L32.288 0.428
L32.354 0.448
L32.419 0.469
L32.480 0.492
L32.692 0.573
L32.755 0.598
L32.818 0.625
L32.879 0.654
L33.085 0.754
L33.146 0.785
L33.207 0.817
L33.268 0.853
L33.463 0.970
L33.521 1.006
L33.579 1.044
L33.626 1.077
L33.811 1.210
L33.866 1.251
L33.920 1.293
L33.973 1.337
L34.146 1.486
L34.197 1.532
L34.247 1.579
L34.289 1.621
L34.449 1.784
L34.496 1.833
L34.542 1.884
L34.586 1.936
L34.731 2.112
L34.774 2.165
L34.815 2.220
L34.855 2.276
L34.984 2.464
L35.022 2.521
L35.058 2.580
L35.087 2.629
L35.200 2.827
L35.233 2.887
L35.264 2.948
L35.295 3.012
L35.390 3.219
L35.417 3.282
L35.443 3.345
L35.466 3.407
L35.543 3.622
L35.566 3.687
L35.586 3.752
L35.603 3.815
L35.661 4.035
L35.678 4.101
L35.692 4.168
L35.704 4.233
L35.743 4.458
L35.754 4.525
L35.763 4.593
L35.769 4.653
L35.789 4.880
L35.794 4.948
L35.797 5.017
L35.798 5.086
L35.798 5.314
L35.797 5.383
L35.794 5.451
L35.789 5.520
L35.769 5.747
L35.762 5.815
L35.753 5.883
L35.743 5.942
L35.704 6.167
L35.692 6.235
L35.677 6.302
L35.661 6.365
L35.603 6.585
L35.585 6.651
L35.565 6.717
L35.543 6.778
L35.466 6.993
L35.442 7.058
L35.416 7.121
L35.390 7.181
L35.295 7.388
L35.265 7.450
L35.234 7.511
L35.200 7.573
L35.087 7.771
L35.052 7.830
L35.016 7.888
L34.984 7.936
L34.855 8.124
L34.815 8.180
L34.774 8.234
L34.731 8.288
L34.586 8.464
L34.541 8.517
L34.496 8.567
L34.449 8.616
L34.289 8.779
L34.240 8.827
L34.190 8.874
L34.146 8.914
L33.973 9.063
L33.920 9.107
L33.866 9.149
L33.811 9.190
L33.626 9.323
L33.570 9.362
L33.512 9.400
L33.463 9.430
L33.268 9.547
L33.209 9.582
L33.148 9.614
L33.085 9.646
L32.879 9.746
L32.817 9.775
L32.754 9.802
L32.692 9.827
L32.480 9.908
L32.415 9.932
L32.350 9.953
L32.288 9.972
L32.068 10.035
L32.002 10.053
L31.935 10.069
L31.876 10.082
L31.653 10.126
L31.585 10.138
L31.518 10.148
L31.445 10.157
L31.218 10.181
L31.150 10.187
L31.081 10.191
L31.023 10.193
L30.795 10.198
L30.726 10.199
L30.657 10.197
L30.599 10.195
L30.371 10.181
L30.303 10.175
L30.234 10.168
L30.154 10.157
L29.929 10.122
L29.861 10.111
L29.794 10.097
L29.744 10.086
L29.522 10.033
L29.456 10.016
L29.390 9.997
L29.325 9.976
L29.109 9.904
L29.044 9.882
L28.980 9.857
L28.914 9.830
L28.705 9.739
L28.642 9.710
L28.581 9.680
L28.531 9.654
L28.330 9.546
L28.270 9.513
L28.211 9.478
L28.150 9.439
L27.960 9.314
L27.904 9.276
L27.848 9.236
L27.803 9.201
L27.623 9.060
L27.569 9.017
L27.517 8.972
L27.463 8.922
L27.297 8.766
L27.247 8.719
L27.200 8.670
L27.154 8.620
L27.002 8.450
L26.957 8.399
L26.914 8.346
L26.876 8.297
L26.739 8.115
L26.699 8.060
L26.660 8.003
L26.626 7.950
L26.505 7.757
L26.469 7.699
L26.436 7.639
L26.405 7.581
L26.301 7.378
L26.270 7.316
L26.242 7.254
L26.214 7.189
L26.128 6.977
L26.104 6.913
L26.081 6.849
L26.064 6.797
L25.996 6.580
L25.976 6.514
L25.958 6.448
L25.943 6.381
L25.894 6.158
L25.880 6.091
L25.868 6.024
L25.858 5.953
L25.829 5.727
L25.821 5.659
L25.816 5.591
L25.812 5.531
L25.802 5.303
L25.800 5.234
L25.800 5.166
L25.802 5.097
L25.812 4.869
L25.816 4.801
L25.822 4.732
L25.829 4.673
L25.858 4.447
L25.868 4.379
L25.880 4.311
L25.894 4.242
L25.943 4.019
L25.958 3.952
L25.976 3.886
L25.996 3.820
L26.064 3.603
L26.085 3.538
L26.108 3.474
L26.128 3.423
L26.214 3.211
L26.241 3.147
L26.270 3.085
L26.301 3.022
L26.405 2.819
L26.437 2.759
L26.471 2.699
L26.505 2.643
L26.626 2.450
L26.663 2.392
L26.702 2.336
L26.739 2.285
L26.876 2.103
L26.919 2.049
L26.962 1.996
L27.002 1.950
L27.154 1.780
L27.201 1.729
L27.248 1.680
L27.297 1.634
L27.463 1.478
L27.513 1.431
L27.565 1.387
L27.623 1.340
L27.803 1.199
L27.857 1.158
L27.913 1.118
L27.960 1.086
L28.150 0.961
L28.208 0.924
L28.267 0.889
L28.330 0.854
L28.531 0.746
L28.592 0.714
L28.653 0.685
L28.705 0.661
L28.914 0.570
L28.977 0.544
L29.041 0.519
L29.109 0.496
L29.325 0.424
L29.390 0.403
L29.456 0.384
L29.522 0.367
L29.744 0.314
L29.811 0.299
L29.879 0.286
L29.929 0.278
L30.154 0.243
L30.222 0.233
L30.290 0.226
L30.371 0.219
L30.599 0.205
L30.667 0.202
L30.736 0.201
L30.795 0.202
M28.150 5.200
A2.650,2.650 0 1,0 33.450,5.200
A2.650,2.650 0 1,0 28.150,5.200
" 
fill="#e0e0e0" vector-effect="non-scaling-stroke" stroke="#000000" stroke-width="0.100mm" fpd:visible="front" />
<path d="
M30.795 0.202
L31.023 0.207
L31.091 0.209
L31.159 0.214
L31.218 0.219
L31.445 0.243
L31.513 0.251
L31.581 0.261
L31.653 0.274
L31.876 0.318
L31.943 0.333
L32.010 0.349
L32.068 0.365
L32.288 0.428
L32.354 0.448
L32.419 0.469
L32.480 0.492
L32.692 0.573
L32.755 0.598
L32.818 0.625
L32.879 0.654
L33.085 0.754
L33.146 0.785
L33.207 0.817
L33.268 0.853
L33.463 0.970
L33.521 1.006
L33.579 1.044
L33.626 1.077
L33.811 1.210
L33.866 1.251
L33.920 1.293
L33.973 1.337
L34.146 1.486
L34.197 1.532
L34.247 1.579
L34.289 1.621
L34.449 1.784
L34.496 1.833
L34.542 1.884
L34.586 1.936
L34.731 2.112
L34.774 2.165
L34.815 2.220
L34.855 2.276
L34.984 2.464
L35.022 2.521
L35.058 2.580
L35.087 2.629
L35.200 2.827
L35.233 2.887
L35.264 2.948
L35.295 3.012
L35.390 3.219
L35.417 3.282
L35.443 3.345
L35.466 3.407
L35.543 3.622
L35.566 3.687
L35.586 3.752
L35.603 3.815
L35.661 4.035
L35.678 4.101
L35.692 4.168
L35.704 4.233
L35.743 4.458
L35.754 4.525
L35.763 4.593
L35.769 4.653
L35.789 4.880
L35.794 4.948
L35.797 5.017
L35.798 5.086
L35.798 5.314
L35.797 5.383
L35.794 5.451
L35.789 5.520
L35.769 5.747
L35.762 5.815
L35.753 5.883
L35.743 5.942
L35.704 6.167
L35.692 6.235
L35.677 6.302
L35.661 6.365
L35.603 6.585
L35.585 6.651
L35.565 6.717
L35.543 6.778
L35.466 6.993
L35.442 7.058
L35.416 7.121
L35.390 7.181
L35.295 7.388
L35.265 7.450
L35.234 7.511
L35.200 7.573
L35.087 7.771
L35.052 7.830
L35.016 7.888
L34.984 7.936
L34.855 8.124
L34.815 8.180
L34.774 8.234
L34.731 8.288
L34.586 8.464
L34.541 8.517
L34.496 8.567
L34.449 8.616
L34.289 8.779
L34.240 8.827
L34.190 8.874
L34.146 8.914
L33.973 9.063
L33.920 9.107
L33.866 9.149
L33.811 9.190
L33.626 9.323
L33.570 9.362
L33.512 9.400
L33.463 9.430
L33.268 9.547
L33.209 9.582
L33.148 9.614
L33.085 9.646
L32.879 9.746
L32.817 9.775
L32.754 9.802
L32.692 9.827
L32.480 9.908
L32.415 9.932
L32.350 9.953
L32.288 9.972
L32.068 10.035
L32.002 10.053
L31.935 10.069
L31.876 10.082
L31.653 10.126
L31.585 10.138
L31.518 10.148
L31.445 10.157
L31.218 10.181
L31.150 10.187
L31.081 10.191
L31.023 10.193
L30.795 10.198
L30.726 10.199
L30.657 10.197
L30.599 10.195
L30.371 10.181
L30.303 10.175
L30.234 10.168
L30.154 10.157
L29.929 10.122
L29.861 10.111
L29.794 10.097
L29.744 10.086
L29.522 10.033
L29.456 10.016
L29.390 9.997
L29.325 9.976
L29.109 9.904
L29.044 9.882
L28.980 9.857
L28.914 9.830
L28.705 9.739
L28.642 9.710
L28.581 9.680
L28.531 9.654
L28.330 9.546
L28.270 9.513
L28.211 9.478
L28.150 9.439
L27.960 9.314
L27.904 9.276
L27.848 9.236
L27.803 9.201
L27.623 9.060
L27.569 9.017
L27.517 8.972
L27.463 8.922
L27.297 8.766
L27.247 8.719
L27.200 8.670
L27.154 8.620
L27.002 8.450
L26.957 8.399
L26.914 8.346
L26.876 8.297
L26.739 8.115
L26.699 8.060
L26.660 8.003
L26.626 7.950
L26.505 7.757
L26.469 7.699
L26.436 7.639
L26.405 7.581
L26.301 7.378
L26.270 7.316
L26.242 7.254
L26.214 7.189
L26.128 6.977
L26.104 6.913
L26.081 6.849
L26.064 6.797
L25.996 6.580
L25.976 6.514
L25.958 6.448
L25.943 6.381
L25.894 6.158
L25.880 6.091
L25.868 6.024
L25.858 5.953
L25.829 5.727
L25.821 5.659
L25.816 5.591
L25.812 5.531
L25.802 5.303
L25.800 5.234
L25.800 5.166
L25.802 5.097
L25.812 4.869
L25.816 4.801
L25.822 4.732
L25.829 4.673
L25.858 4.447
L25.868 4.379
L25.880 4.311
L25.894 4.242
L25.943 4.019
L25.958 3.952
L25.976 3.886
L25.996 3.820
L26.064 3.603
L26.085 3.538
L26.108 3.474
L26.128 3.423
L26.214 3.211
L26.241 3.147
L26.270 3.085
L26.301 3.022
L26.405 2.819
L26.437 2.759
L26.471 2.699
L26.505 2.643
L26.626 2.450
L26.663 2.392
L26.702 2.336
L26.739 2.285
L26.876 2.103
L26.919 2.049
L26.962 1.996
L27.002 1.950
L27.154 1.780
L27.201 1.729
L27.248 1.680
L27.297 1.634
L27.463 1.478
L27.513 1.431
L27.565 1.387
L27.623 1.340
L27.803 1.199
L27.857 1.158
L27.913 1.118
L27.960 1.086
L28.150 0.961
L28.208 0.924
L28.267 0.889
L28.330 0.854
L28.531 0.746
L28.592 0.714
L28.653 0.685
L28.705 0.661
L28.914 0.570
L28.977 0.544
L29.041 0.519
L29.109 0.496
L29.325 0.424
L29.390 0.403
L29.456 0.384
L29.522 0.367
L29.744 0.314
L29.811 0.299
L29.879 0.286
L29.929 0.278
L30.154 0.243
L30.222 0.233
L30.290 0.226
L30.371 0.219
L30.599 0.205
L30.667 0.202
L30.736 0.201
L30.795 0.202
" 
fill="none" vector-effect="non-scaling-stroke" stroke="#000000" stroke-width="0.100mm" fpd:visible="front" />
<path d="
M28.150 5.200
A2.650,2.650 0 1,0 33.450,5.200
A2.650,2.650 0 1,0 28.150,5.200
" 
fill="#ffffff" vector-effect="non-scaling-stroke" stroke="#000000" stroke-width="0.100mm" fpd:visible="front back" fpd:print_element="0" />
<path d="
M419.300 63.535
A3.175,3.175 0 1,0 425.650,63.535
A3.175,3.175 0 1,0 419.300,63.535
" 
fill="#ffffff" vector-effect="non-scaling-stroke" stroke="#000000" stroke-width="0.100mm" fpd:visible="front back" fpd:print_element="0" />
<path d="
M108.150 63.535
A3.175,3.175 0 1,0 114.500,63.535
A3.175,3.175 0 1,0 108.150,63.535
" 
fill="#ffffff" vector-effect="non-scaling-stroke" stroke="#000000" stroke-width="0.100mm" fpd:visible="front back" fpd:print_element="0" />
<path d="
M152.600 63.535
A3.175,3.175 0 1,0 158.950,63.535
A3.175,3.175 0 1,0 152.600,63.535
" 
fill="#ffffff" vector-effect="non-scaling-stroke" stroke="#000000" stroke-width="0.100mm" fpd:visible="front back" fpd:print_element="0" />
<path d="
M197.050 63.535
A3.175,3.175 0 1,0 203.400,63.535
A3.175,3.175 0 1,0 197.050,63.535
" 
fill="#ffffff" vector-effect="non-scaling-stroke" stroke="#000000" stroke-width="0.100mm" fpd:visible="front back" fpd:print_element="0" />
<path d="
M330.400 63.535
A3.175,3.175 0 1,0 336.750,63.535
A3.175,3.175 0 1,0 330.400,63.535
" 
fill="#ffffff" vector-effect="non-scaling-stroke" stroke="#000000" stroke-width="0.100mm" fpd:visible="front back" fpd:print_element="0" />
<path d="
M241.500 63.535
A3.175,3.175 0 1,0 247.850,63.535
A3.175,3.175 0 1,0 241.500,63.535
" 
fill="#ffffff" vector-effect="non-scaling-stroke" stroke="#000000" stroke-width="0.100mm" fpd:visible="front back" fpd:print_element="0" />
<path d="
M285.950 63.535
A3.175,3.175 0 1,0 292.300,63.535
A3.175,3.175 0 1,0 285.950,63.535
" 
fill="#ffffff" vector-effect="non-scaling-stroke" stroke="#000000" stroke-width="0.100mm" fpd:visible="front back" fpd:print_element="0" />
<path d="
M374.850 63.535
A3.175,3.175 0 1,0 381.200,63.535
A3.175,3.175 0 1,0 374.850,63.535
" 
fill="#ffffff" vector-effect="non-scaling-stroke" stroke="#000000" stroke-width="0.100mm" fpd:visible="front back" fpd:print_element="0" />
<path d="
M107.680 49.770
A6.420,6.420 0 0,1 107.680,39.200
A6.420,6.420 0 0,1 114.970,49.770
A1.500,1.500 0 0,1 114.119,50.035
L108.531 50.035
A1.500,1.500 0 0,1 107.680,49.770
" 
fill="#ffffff" vector-effect="non-scaling-stroke" stroke="#000000" stroke-width="0.100mm" fpd:visible="front back" fpd:print_element="0" />
<path d="
M152.130 49.770
A6.420,6.420 0 0,1 152.130,39.200
A6.420,6.420 0 0,1 159.420,49.770
A1.500,1.500 0 0,1 158.569,50.035
L152.981 50.035
A1.500,1.500 0 0,1 152.130,49.770
" 
fill="#ffffff" vector-effect="non-scaling-stroke" stroke="#000000" stroke-width="0.100mm" fpd:visible="front back" fpd:print_element="0" />
<path d="
M196.580 49.770
A6.420,6.420 0 0,1 196.580,39.200
A6.420,6.420 0 0,1 203.870,49.770
A1.500,1.500 0 0,1 203.019,50.035
L197.431 50.035
A1.500,1.500 0 0,1 196.580,49.770
" 
fill="#ffffff" vector-effect="non-scaling-stroke" stroke="#000000" stroke-width="0.100mm" fpd:visible="front back" fpd:print_element="0" />
<path d="
M285.480 49.770
A6.420,6.420 0 0,1 285.480,39.200
A6.420,6.420 0 0,1 292.770,49.770
A1.500,1.500 0 0,1 291.919,50.035
L286.331 50.035
A1.500,1.500 0 0,1 285.480,49.770
" 
fill="#ffffff" vector-effect="non-scaling-stroke" stroke="#000000" stroke-width="0.100mm" fpd:visible="front back" fpd:print_element="0" />
<path d="
M374.380 49.770
A6.420,6.420 0 0,1 374.380,39.200
A6.420,6.420 0 0,1 381.670,49.770
A1.500,1.500 0 0,1 380.819,50.035
L375.231 50.035
A1.500,1.500 0 0,1 374.380,49.770
" 
fill="#ffffff" vector-effect="non-scaling-stroke" stroke="#000000" stroke-width="0.100mm" fpd:visible="front back" fpd:print_element="0" />
<path d="
M241.030 49.770
A6.420,6.420 0 0,1 241.030,39.200
A6.420,6.420 0 0,1 248.320,49.770
A1.500,1.500 0 0,1 247.469,50.035
L241.881 50.035
A1.500,1.500 0 0,1 241.030,49.770
" 
fill="#ffffff" vector-effect="non-scaling-stroke" stroke="#000000" stroke-width="0.100mm" fpd:visible="front back" fpd:print_element="0" />
<path d="
M329.930 49.770
A6.420,6.420 0 0,1 329.930,39.200
A6.420,6.420 0 0,1 337.220,49.770
A1.500,1.500 0 0,1 336.369,50.035
L330.781 50.035
A1.500,1.500 0 0,1 329.930,49.770
" 
fill="#ffffff" vector-effect="non-scaling-stroke" stroke="#000000" stroke-width="0.100mm" fpd:visible="front back" fpd:print_element="0" />
<path d="
M418.830 49.770
A6.420,6.420 0 0,1 418.830,39.200
A6.420,6.420 0 0,1 426.120,49.770
A1.500,1.500 0 0,1 425.269,50.035
L419.681 50.035
A1.500,1.500 0 0,1 418.830,49.770
" 
fill="#ffffff" vector-effect="non-scaling-stroke" stroke="#000000" stroke-width="0.100mm" fpd:visible="front back" fpd:print_element="0" />
<path d="
M56.880 49.770
A6.420,6.420 0 0,1 56.880,39.200
A6.420,6.420 0 0,1 64.170,49.770
A1.500,1.500 0 0,1 63.319,50.035
L57.731 50.035
A1.500,1.500 0 0,1 56.880,49.770
" 
fill="#ffffff" vector-effect="non-scaling-stroke" stroke="#000000" stroke-width="0.100mm" fpd:visible="front back" fpd:print_element="0" />
<path d="
M482.000 88.100
A1.000,1.000 0 0,0 483.000,87.100
L483.000 1.000
A1.000,1.000 0 0,0 482.000,0.000
L1.000 0.000
A1.000,1.000 0 0,0 0.000,1.000
L0.000 87.100
A1.000,1.000 0 0,0 1.000,88.100
L482.000 88.100
" 
fill="none" vector-effect="non-scaling-stroke" stroke="#000000" stroke-width="0.100mm" fpd:visible="front back" />
</g>
</svg>
